<?xml version="1.0" encoding="utf-8"?>
<!-- Generator: Adobe Illustrator 22.1.0, SVG Export Plug-In . SVG Version: 6.00 Build 0)  -->
<svg version="1.1" id="Layer_1" xmlns="http://www.w3.org/2000/svg" xmlns:xlink="http://www.w3.org/1999/xlink" x="0px" y="0px"
	 viewBox="0 0 76.3 102" style="enable-background:new 0 0 76.3 102;" xml:space="preserve">
<style type="text/css">
	.st0{fill:#002A4F;}
</style>
<path class="st0" d="M73.4,32.6L48,3.6C46,1.3,43.2,0,40.3,0H10.7C4.8,0,0,5.2,0,11.5v79C0,96.8,4.8,102,10.7,102h54.9
	c5.9,0,10.7-5.2,10.7-11.5v-50C76.3,37.5,75.3,34.7,73.4,32.6z M66.7,34H50.1c-2,0-3.6-1.9-3.6-4.3V10.9L66.7,34z M70.3,90.5
	c0,3-2.1,5.5-4.7,5.5H10.7C8.1,96,6,93.5,6,90.5v-79C6,8.5,8.1,6,10.7,6h29.6c0.1,0,0.2,0,0.2,0v23.7c0,5.7,4.3,10.3,9.6,10.3h20.2
	c0,0.1,0,0.3,0,0.4V90.5z"/>
</svg>
