<?xml version="1.0" encoding="utf-8"?>
<!-- Generator: Adobe Illustrator 22.1.0, SVG Export Plug-In . SVG Version: 6.00 Build 0)  -->
<svg version="1.1" id="Layer_1" xmlns="http://www.w3.org/2000/svg" xmlns:xlink="http://www.w3.org/1999/xlink" x="0px" y="0px"
	 viewBox="0 0 93.9 93.9" style="enable-background:new 0 0 93.9 93.9;" xml:space="preserve">
<style type="text/css">
	.st0{fill:#002A4F;}
</style>
<g>
	<path class="st0" d="M47,0C21,0,0,21,0,47s21,47,47,47c26,0,47-21,47-47S72.9,0,47,0z M78.7,59c-0.9,8.8-6.8,16.2-16,20.4
		c-4.3,2-9.7,3.3-15.5,3.3c-8.9,0-18.7-3.1-27-11.9c-5.8-6.1-8.9-15-8.6-24.5c0.3-9.7,4.3-18.7,11-24.8c7.7-7,17.7-10.7,27.6-9.9
		C60.1,12.4,69,17.4,75.8,26c1,1.3,0.8,3.2-0.5,4.2c-1.3,1-3.2,0.8-4.2-0.5c-5.8-7.3-13.2-11.5-21.4-12.1
		c-8.2-0.7-16.6,2.4-23.1,8.3c-5.5,5-8.8,12.5-9,20.6c-0.3,7.8,2.3,15.2,7,20.1c11.4,12,25.9,11.6,35.7,7.2
		c9.9-4.5,12.1-11.6,12.5-15.5c0.6-5.5-1.5-11.1-5.3-13.8c-4.4-3.3-10.1-1.1-11.7-0.3c-1.2,0.5-2.6,0.3-3.5-0.6
		c-1-0.9-1.3-2.3-0.9-3.5c0.7-1.9,1.3-5.3-2.2-7.6c-1.1-0.8-3.2-0.6-5.8,0.6c-4.9,2.2-9,6.6-9.5,8.3c1.2,3.1,12.4,14.8,22.3,24.2
		c1.2,1.1,1.2,3,0.1,4.2c-1.1,1.2-3,1.2-4.2,0.1C41.1,59.6,28.2,46.4,27.8,41.8c-0.4-4.7,6.2-10.4,10.5-12.9
		c5.6-3.3,10.6-3.8,14.2-1.4c3.9,2.6,5.3,6.2,5.3,9.7c3.7-0.8,8.7-0.8,13.2,2.5C76.5,43.7,79.5,51.3,78.7,59z"/>
</g>
</svg>
