<?xml version="1.0" encoding="utf-8"?>
<!-- Generator: Adobe Illustrator 22.1.0, SVG Export Plug-In . SVG Version: 6.00 Build 0)  -->
<svg version="1.1" id="Layer_1" xmlns="http://www.w3.org/2000/svg" xmlns:xlink="http://www.w3.org/1999/xlink" x="0px" y="0px"
	 viewBox="0 0 83.5 135.2" style="enable-background:new 0 0 83.5 135.2;" xml:space="preserve">
<style type="text/css">
	.st0{fill:#002A4F;}
</style>
<path class="st0" d="M81.8,48.3c-1.3-5.7-4.5-9.7-8.8-11.2c-2.2-0.8-4.6-0.7-6.8,0.1c-1.5-2-4.3-3.7-9.2-3.7c-3.2,0-5.4,0.9-6.9,2.2
	c-1.7-1.3-4.1-2.2-7.7-2.2c-1.4,0-2.6,0.2-3.8,0.6V33V9.5c0-0.1-0.1-9.5-11.9-9.5c-4,0-7,1.1-9,3.3c-2.2,2.5-2.2,5.3-2.1,6.2V39
	c0,1.2-0.5,2.3-1.4,3.1c-1.9,0.7-7.7,3.5-11.6,10.5c-3.9,7.1-3.4,23.7-0.1,30.9C6.3,91.7,16,98.2,17.8,99.3c0.8,0.8,1.2,1.8,1.2,2.9
	v18.7h0c0,0.3,0,0.5,0,0.8v5.7c0,4.3,3.5,7.8,7.8,7.8h41.6c4.3,0,7.8-3.5,7.8-7.8v-5.7c0-0.3,0-0.5,0-0.8h0v-18.2
	c0.2-0.4,0.7-1.3,1.1-2.1c1.6-3,4-7.5,4.8-12.5C84,74.2,83.9,57.2,81.8,48.3z M47.2,41.5L47.2,41.5C47.2,41.6,47.2,41.5,47.2,41.5z
	 M76.1,87.2c-0.6,3.9-2.7,7.9-4.1,10.5c-1.1,2.1-1.8,3.3-1.8,4.6v11.7c-0.6-0.1-1.2-0.2-1.8-0.2H26.8c-0.6,0-1.2,0.1-1.8,0.2v-11.8
	c0-2.8-1.2-5.6-3.3-7.5l-0.4-0.3c-0.1-0.1-9.9-6.2-13.1-13.4c-2.5-5.6-3-20.3-0.1-25.6c2.5-4.5,6-6.7,7.7-7.5v18.8c0,1.7,1.3,3,3,3
	s3-1.3,3-3V40.1c0-0.2,0-0.3,0-0.4c0-0.2,0-0.5,0-0.7V9.5l0-0.1l0-0.2c0,0-0.1-1.1,0.7-1.9C23.1,6.4,24.7,6,26.8,6
	c5.3,0,5.8,2.7,5.9,3.5V33v8.6V49c0,1.7,1.3,3,3,3s3-1.3,3-3v-6.8c0.5-1.8,1.7-2.7,3.8-2.7c3.3,0,4.6,1.1,4.8,2.1V49
	c0,1.7,1.3,3,3,3s3-1.3,3-3v-7.4c0.1-0.6,0.5-2.1,3.8-2.1c3.2,0,4.5,1.1,4.7,2.1l0,6.2V49c0,1.7,1.3,3,3,3s3-1.3,3-3v-5.9
	c0.9-0.5,2.1-0.8,3.4-0.3c2.2,0.8,4,3.3,4.9,6.9C77.9,57.8,77.9,74.3,76.1,87.2z"/>
</svg>
