<?xml version="1.0" encoding="utf-8"?>
<!-- Generator: Adobe Illustrator 22.1.0, SVG Export Plug-In . SVG Version: 6.00 Build 0)  -->
<svg version="1.1" id="Layer_1" xmlns="http://www.w3.org/2000/svg" xmlns:xlink="http://www.w3.org/1999/xlink" x="0px" y="0px"
	 viewBox="0 0 65 118.3" style="enable-background:new 0 0 65 118.3;" xml:space="preserve">
<style type="text/css">
	.st0{fill:#002A4F;}
</style>
<path class="st0" d="M55.6,0H9.5C4.2,0,0,4.2,0,9.5v99.4c0,5.2,4.2,9.5,9.5,9.5h46.1c5.2,0,9.5-4.2,9.5-9.5V9.5
	C65.1,4.2,60.8,0,55.6,0z M32.4,112.1c-2.5,0-4.5-2-4.5-4.5c0-2.5,2-4.5,4.5-4.5s4.5,2,4.5,4.5C36.9,110.1,34.9,112.1,32.4,112.1z
	 M55.9,96.8H10V12h45.9V96.8z"/>
</svg>
